<?xml version="1.0" encoding="utf-8"?>
<!-- Generator: Adobe Illustrator 24.1.1, SVG Export Plug-In . SVG Version: 6.00 Build 0)  -->
<svg version="1.1" id="Layer_1" xmlns="http://www.w3.org/2000/svg" xmlns:xlink="http://www.w3.org/1999/xlink" x="0px" y="0px"
	 viewBox="0 0 394.81 522.91" style="enable-background:new 0 0 394.81 522.91;" xml:space="preserve">
<style type="text/css">
	.st0{fill:#FFC341;}
</style>
<path class="st0" d="M393.54,405.81c-15.6,79.13-98.3,117.1-197.92,117.1C115.83,522.9,41.92,492.75,0,460.39l15.07-21.7
	c36.78,27.95,104.07,58.1,180.55,58.11c84.99,0,154.57-29.19,169.43-90.99H393.54z"/>
<path class="st0" d="M44.55,115.34C58.4,58.57,119.18,26.1,197.47,26.11c74.65,0,130.91,25.01,169.15,53.32l13.98-22.06
	C339.04,26.84,280.57,0,197.83,0C104.89,0,30.47,41.16,15.98,115.34H44.55z"/>
<path class="st0" d="M241.97,250.79l-65.82-6.99c-82.94-8.45-122.07-37.99-131.93-79.91H14.96c9.1,59.15,57.2,96.47,149.05,106.01
	l67.3,6.99c78.7,8.64,123.96,32.61,134.41,80.35h29.1C385.28,290.99,328.91,260.49,241.97,250.79z"/>
</svg>
